<?xml version="1.0" standalone="no"?>
<!DOCTYPE svg PUBLIC "-//W3C//DTD SVG 1.1//EN" "http://www.w3.org/Graphics/SVG/1.1/DTD/svg11.dtd" >
<svg xmlns="http://www.w3.org/2000/svg">
<metadata></metadata>
<defs>
<font id="RobustICGRegular" horiz-adv-x="1011" >
<font-face units-per-em="2048" ascent="1638" descent="-410" />
<missing-glyph horiz-adv-x="602" />
<glyph horiz-adv-x="0" />
<glyph horiz-adv-x="2048" />
<glyph unicode="&#xd;" horiz-adv-x="0" />
<glyph unicode=" "  horiz-adv-x="602" />
<glyph unicode="&#x09;" horiz-adv-x="602" />
<glyph unicode="&#xa0;" horiz-adv-x="602" />
<glyph unicode="!" horiz-adv-x="530" d="M169 0v193h192v-193h-192zM169 386v963h192v-963h-192z" />
<glyph unicode="&#x22;" horiz-adv-x="828" d="M149 899l46 450h193l-164 -450h-75zM448 899l46 450h193l-164 -450h-75z" />
<glyph unicode="#" horiz-adv-x="915" d="M145 282v111h130v202h-130v111h130v173h111v-173h144v173h111v-173h130v-111h-130v-202h130v-111h-130v-174h-111v174h-144v-174h-111v174h-130zM386 393h144v202h-144v-202z" />
<glyph unicode="$" horiz-adv-x="961" d="M145 400v79h168v-53q0 -58 65 -57h198q58 0 58 65v166q0 22 -19.5 38.5t-41.5 16.5h-228q-80 0 -140 58t-60 140v185q0 82 57.5 141t142.5 59h55v111h169v-111h48q82 0 141 -57.5t59 -142.5v-79h-183v55q0 55 -61 56h-200q-60 0 -60 -63v-125q0 -58 65 -58h239 q82 0 141 -58t59 -142v-236q0 -80 -58 -139t-142 -59h-48v-110h-169v110h-55q-80 0 -140 63t-60 147z" />
<glyph unicode="%" horiz-adv-x="1226" d="M142 663v228q0 36 28 66.5t64 30.5h226q36 0 61.5 -28t25.5 -69v-228q0 -39 -25.5 -65.5t-61.5 -26.5h-226q-39 0 -65.5 26.5t-26.5 65.5zM236 687q0 -24 24 -24h171q24 0 24 24v180q0 24 -24 24h-173q-22 0 -22 -24v-180zM313 19l506 991l85 -44l-506 -990zM677 94v229 q0 36 26.5 63.5t65.5 27.5h226q36 0 61.5 -26.5t25.5 -64.5v-229q0 -41 -25.5 -67.5t-61.5 -26.5h-226q-39 0 -65.5 26.5t-26.5 67.5zM771 118q0 -24 24 -24h171q24 0 24 24v181q0 24 -24 24h-173q-22 0 -22 -24v-181z" />
<glyph unicode="&#x26;" horiz-adv-x="862" d="M145 195v268q0 67 41 120q-41 48 -41 118v193q0 77 56.5 136t138.5 59h130q77 0 136 -56.5t59 -138.5v-82h-157v53q0 55 -60 55h-82q-55 0 -55 -55v-164l236 -137v89h166v-186l53 -31v-185l-53 31v-87q0 -82 -55.5 -138.5t-139.5 -56.5h-178q-84 0 -139.5 56.5 t-55.5 138.5zM311 229q0 -55 55 -56h126q55 1 55 56v144l-186 106q-19 12 -34.5 12.5t-15.5 -33.5v-229z" />
<glyph unicode="'" horiz-adv-x="457" d="M149 899l46 450h193l-164 -450h-75z" />
<glyph unicode="(" horiz-adv-x="640" d="M145 -145v1446q0 89 62.5 153t153.5 64h135v-169h-120q-63 0 -63 -67v-1402q0 -29 20.5 -51t47.5 -22h115v-168h-135q-94 0 -155 61t-61 155z" />
<glyph unicode=")" horiz-adv-x="640" d="M145 -193h115q27 0 47.5 22t20.5 51v1402q0 67 -63 67h-120v169h134q92 0 154.5 -64t62.5 -153v-1446q0 -94 -61.5 -155t-155.5 -61h-134v168z" />
<glyph unicode="*" d="M186 737l226 227l-226 226l93 94l160 -159v224h134v-224l159 159l94 -94l-226 -226l226 -227l-94 -94l-159 159v-224h-134v224l-160 -159z" />
<glyph unicode="+" d="M145 410v168h277v277h168v-277h277v-168h-277v-277h-168v277h-277z" />
<glyph unicode="," horiz-adv-x="530" d="M123 -258l46 451h192l-163 -451h-75z" />
<glyph unicode="-" d="M231 410v168h554v-168h-554z" />
<glyph unicode="." horiz-adv-x="530" d="M169 0v193h192v-193h-192z" />
<glyph unicode="/" horiz-adv-x="734" d="M63 -265l445 1783h169l-446 -1783h-168z" />
<glyph unicode="0" d="M145 217v915q0 89 62.5 153t153.5 64h290q89 0 152.5 -62.5t63.5 -154.5v-915q0 -92 -63.5 -154.5t-152.5 -62.5h-290q-94 0 -155 61.5t-61 155.5zM313 241q0 -29 20.5 -50.5t47.5 -21.5h250q68 -1 68 62v887q0 63 -68 63h-255q-63 0 -63 -68v-872z" />
<glyph unicode="1" horiz-adv-x="602" d="M145 1181v168h265v-1349h-169v1181h-96z" />
<glyph unicode="2" d="M145 0v578q0 92 63.5 154.5t152.5 62.5h270q67 0 68 63v255q0 67 -63 68h-255q-67 0 -68 -63v-58h-168v72q0 92 63.5 154.5t152.5 62.5h290q92 0 154 -63.5t62 -153.5v-289q0 -92 -63.5 -154.5t-152.5 -62.5h-270q-67 0 -68 -62v-395h386v53h168v-222h-722z" />
<glyph unicode="3" d="M145 217v72h168v-58q0 -63 68 -62h255q63 0 63 67v328q0 63 -68 62h-197v169h197q67 0 68 63v255q0 67 -63 68h-255q-67 0 -68 -63v-58h-168v72q0 92 63.5 154.5t152.5 62.5h290q92 0 154 -63.5t62 -153.5v-289q0 -75 -45 -132q46 -58 45 -133v-361q0 -89 -62.5 -153 t-153.5 -64h-290q-89 0 -152.5 62.5t-63.5 154.5z" />
<glyph unicode="4" horiz-adv-x="963" d="M145 626v514l178 176l120 -121l-130 -128v-272h338v554h168v-1349h-168v626h-506z" />
<glyph unicode="5" d="M145 217v72h168v-58q0 -63 68 -62h255q63 0 63 67v328q0 63 -68 62h-486v723h674v-236h-168v68h-338v-386h338q89 0 152.5 -62.5t63.5 -154.5v-361q0 -89 -62.5 -153t-153.5 -64h-290q-89 0 -152.5 62.5t-63.5 154.5z" />
<glyph unicode="6" d="M145 217v915q0 89 62.5 153t153.5 64h290q89 0 152.5 -62.5t63.5 -154.5v-72h-168v58q0 63 -68 63h-255q-63 0 -63 -68v-318h338q89 0 152.5 -62.5t63.5 -154.5v-361q0 -89 -62.5 -153t-153.5 -64h-290q-89 0 -152.5 62.5t-63.5 154.5zM313 241q0 -29 20.5 -50.5 t47.5 -21.5h255q63 0 63 67v328q0 63 -68 62h-318v-385z" />
<glyph unicode="7" horiz-adv-x="951" d="M145 1181v168h662v-482l-328 -327v-542h-168v614l327 328v241h-493z" />
<glyph unicode="8" d="M145 217v361q0 75 45 133q-46 58 -45 132v289q0 92 63.5 154.5t152.5 62.5h290q92 0 154 -63.5t62 -153.5v-289q0 -75 -45 -132q46 -58 45 -133v-361q0 -89 -62.5 -153t-153.5 -64h-290q-89 0 -152.5 62.5t-63.5 154.5zM313 231q0 -63 68 -62h255q63 0 63 67v328 q0 63 -68 62h-250q-67 0 -68 -62v-333zM313 858q0 -63 68 -63h250q68 0 68 63v255q0 67 -63 68h-255q-67 0 -68 -63v-260z" />
<glyph unicode="9" d="M145 217v72h168v-58q0 -63 68 -62h255q63 0 63 67v390h-338q-89 0 -152.5 63t-63.5 154v289q0 89 62.5 153t153.5 64h290q89 0 152.5 -62.5t63.5 -154.5v-915q0 -89 -62.5 -153t-153.5 -64h-290q-89 0 -152.5 62.5t-63.5 154.5zM313 858q0 -63 68 -63h318v313 q0 29 -20.5 51t-47.5 22h-255q-63 0 -63 -68v-255z" />
<glyph unicode=":" horiz-adv-x="530" d="M169 0v193h192v-193h-192zM169 795v193h192v-193h-192z" />
<glyph unicode=";" horiz-adv-x="530" d="M123 -258l46 451h192l-163 -451h-75zM169 795v193h192v-193h-192z" />
<glyph unicode="&#x3c;" horiz-adv-x="766" d="M152 431v116l335 335l120 -121l-272 -272l272 -272l-120 -121z" />
<glyph unicode="=" d="M145 253v169h722v-169h-722zM145 566v169h722v-169h-722z" />
<glyph unicode="&#x3e;" horiz-adv-x="766" d="M159 217l272 272l-272 272l120 121l335 -335v-116l-335 -335z" />
<glyph unicode="?" horiz-adv-x="1086" d="M145 1012v120q0 92 63.5 154.5t152.5 62.5h364q92 0 154.5 -63.5t62.5 -153.5v-265q0 -92 -64 -154t-153 -62h-82q-67 0 -67 -63v-251h-193v289q0 92 64 154.5t153 62.5h82q67 0 67 63v183q0 67 -62 68h-282q-67 0 -68 -63v-82h-192zM383 0v193h193v-193h-193z" />
<glyph unicode="@" horiz-adv-x="1252" d="M145 217v554q0 92 63.5 154.5t152.5 62.5h530q92 0 154.5 -64t62.5 -153v-304q0 -92 -63.5 -154t-153.5 -62h-286q-92 0 -154.5 63.5t-62.5 152.5v49q0 92 64 154t153 62h224v-313h43q67 0 68 63v270q0 67 -63 67h-496q-27 0 -47.5 -21.5t-20.5 -50.5v-511q0 -67 63 -67 h619v-169h-634q-92 0 -154 64t-62 153zM557 419h103v145h-36q-27 0 -47 -22t-20 -50v-73z" />
<glyph unicode="A" d="M145 0v1132q0 92 63.5 154.5t152.5 62.5h290q89 0 152.5 -62.5t63.5 -154.5v-1132h-168v506h-386v-506h-168zM313 675h386v443q0 63 -68 63h-250q-67 0 -68 -63v-443z" />
<glyph unicode="B" d="M145 0v1349h506q92 0 154 -63.5t62 -153.5v-289q0 -77 -43 -135q43 -60 43 -130v-361q0 -94 -61 -155.5t-155 -61.5h-506zM313 169h318q27 0 47.5 21.5t20.5 50.5v318q0 67 -63 67h-323v-457zM313 795h318q27 0 47.5 21.5t20.5 50.5v246q0 67 -63 68h-323v-386z" />
<glyph unicode="C" d="M145 217v915q0 89 62.5 153t153.5 64h290q89 0 152.5 -62.5t63.5 -154.5v-72h-168v58q0 63 -68 63h-255q-63 0 -63 -68v-872q0 -29 20.5 -50.5t47.5 -21.5h250q67 0 68 62v58h168v-72q0 -92 -63.5 -154.5t-152.5 -62.5h-290q-94 0 -155 61.5t-61 155.5z" />
<glyph unicode="D" d="M145 0v1349h506q89 0 152.5 -62.5t63.5 -154.5v-915q0 -92 -63.5 -154.5t-152.5 -62.5h-506zM313 169h318h2q66 0 66 62v887q0 63 -68 63h-318v-1012z" />
<glyph unicode="E" d="M145 0v1349h722v-168h-554v-386h436v-169h-436v-457h554v-169h-722z" />
<glyph unicode="F" d="M145 0v1349h722v-168h-554v-386h436v-169h-436v-626h-168z" />
<glyph unicode="G" d="M145 217v915q0 89 62.5 153t153.5 64h290q89 0 152.5 -62.5t63.5 -154.5v-72h-168v58q0 63 -68 63h-255q-63 0 -63 -68v-872q0 -29 20.5 -50.5t47.5 -21.5h250q67 0 68 62v275h-121v169h289v-458q0 -92 -63.5 -154.5t-152.5 -62.5h-290q-94 0 -155 61.5t-61 155.5z" />
<glyph unicode="H" d="M145 0v1349h168v-554h386v554h168v-1349h-168v626h-386v-626h-168z" />
<glyph unicode="I" horiz-adv-x="554" d="M193 0v1349h168v-1349h-168z" />
<glyph unicode="J" d="M145 217v72h168v-58q0 -62 66 -62h2h255q63 0 63 67v1113h168v-1132q0 -89 -62.5 -153t-153.5 -64h-290q-89 0 -152.5 62.5t-63.5 154.5z" />
<glyph unicode="K" d="M145 0v1349h168v-556l386 385v171h168v-238l-308 -309l308 -308v-494h-168v426l-258 258l-128 -127v-557h-168z" />
<glyph unicode="L" horiz-adv-x="915" d="M145 0v1349h168v-1180h458v-169h-626z" />
<glyph unicode="M" horiz-adv-x="1204" d="M145 0v1349h166l291 -800l292 800h166v-1349h-169v851l-199 -550h-179l-200 550v-851h-168z" />
<glyph unicode="N" d="M145 0v1349h200l354 -976v976h168v-1349h-212l-342 942v-942h-168z" />
<glyph unicode="O" d="M145 217v915q0 89 62.5 153t153.5 64h290q89 0 152.5 -62.5t63.5 -154.5v-915q0 -92 -63.5 -154.5t-152.5 -62.5h-290q-94 0 -155 61.5t-61 155.5zM313 241q0 -29 20.5 -50.5t47.5 -21.5h250h2q66 0 66 62v887q0 63 -68 63h-255q-63 0 -63 -68v-872z" />
<glyph unicode="P" d="M145 0v1349h506q92 0 154 -63.5t62 -153.5v-289q0 -94 -61 -155.5t-155 -61.5h-338v-626h-168zM313 795h318q27 0 47.5 21.5t20.5 50.5v246q0 67 -63 68h-323v-386z" />
<glyph unicode="Q" d="M145 217v915q0 89 62.5 153t153.5 64h290q89 0 152.5 -62.5t63.5 -154.5v-915q0 -92 -63.5 -154.5t-152.5 -62.5h-58v-120h-169v120h-63q-94 0 -155 61.5t-61 155.5zM313 241q0 -29 20.5 -50.5t47.5 -21.5h43v120h169v-120h38h2q66 0 66 62v887q0 63 -68 63h-255 q-63 0 -63 -68v-872z" />
<glyph unicode="R" d="M145 0v1349h506q92 0 154 -63.5t62 -153.5v-289q0 -77 -43 -135q43 -60 43 -130v-578h-168v559q0 67 -63 67h-323v-626h-168zM313 795h318q27 0 47.5 21.5t20.5 50.5v246q0 67 -63 68h-323v-386z" />
<glyph unicode="S" d="M145 217v72h168v-58q0 -62 66 -62h2h255q63 0 63 67v328q0 62 -66 62h-2h-270q-89 0 -152.5 63t-63.5 154v289q0 89 62.5 153t153.5 64h290q89 0 152.5 -62.5t63.5 -154.5v-72h-168v58q0 63 -68 63h-255q-63 0 -63 -68v-255q0 -63 68 -63h270q89 0 152.5 -62.5 t63.5 -154.5v-361q0 -89 -62.5 -153t-153.5 -64h-290q-89 0 -152.5 62.5t-63.5 154.5z" />
<glyph unicode="T" horiz-adv-x="915" d="M96 1181v168h723v-168h-274v-1181h-169v1181h-280z" />
<glyph unicode="U" d="M145 217v1132h168v-1118q0 -62 66 -62h2h250q67 0 68 62v1118h168v-1132q0 -92 -63.5 -154.5t-152.5 -62.5h-290q-89 0 -152.5 62.5t-63.5 154.5z" />
<glyph unicode="V" d="M145 455v894h168v-845l193 -335l193 335v845h168v-894l-265 -455h-192z" />
<glyph unicode="W" horiz-adv-x="1199" d="M145 217v1132h168v-1118q0 -62 66 -62h2h67q67 0 68 62v1118h168v-1118q0 -62 66 -62h2h67q67 0 68 62v1118h168v-1132q0 -92 -63.5 -154.5t-153.5 -62.5h-106q-70 0 -132 43q-60 -43 -133 -43h-106q-89 0 -152.5 62.5t-63.5 154.5z" />
<glyph unicode="X" d="M145 0v494l207 207l-207 207v441h168v-373l193 -193l193 193v373h168v-441l-207 -207l207 -207v-494h-168v426l-193 193l-193 -193v-426h-168z" />
<glyph unicode="Y" d="M145 843v506h168v-491q0 -63 68 -63h250q67 0 68 63v491h168v-506q0 -92 -63.5 -154.5t-152.5 -62.5h-58v-626h-169v626h-63q-89 0 -152.5 63t-63.5 154z" />
<glyph unicode="Z" horiz-adv-x="963" d="M145 0v289l481 834v58h-457v168h626v-272l-482 -836v-72h506v-169h-674z" />
<glyph unicode="[" horiz-adv-x="640" d="M145 -361v1879h351v-169h-183v-1542h183v-168h-351z" />
<glyph unicode="\" horiz-adv-x="734" d="M58 1518h168l446 -1783h-168z" />
<glyph unicode="]" horiz-adv-x="640" d="M145 -193h183v1542h-183v169h351v-1879h-351v168z" />
<glyph unicode="^" horiz-adv-x="869" d="M145 1116l233 233h114l233 -233l-79 -80l-212 210l-210 -210z" />
<glyph unicode="_" horiz-adv-x="602" d="M-7 -72h617v-73h-617v73z" />
<glyph unicode="`" d="M231 1573l118 155l400 -273l-31 -33z" />
<glyph unicode="a" d="M145 217v193q0 92 63.5 154t152.5 62h290q34 0 48 -4v130q0 67 -63 67h-255q-67 0 -68 -62v-58h-168v72q0 92 63.5 154.5t152.5 62.5h290q92 0 154 -64t62 -153v-554q0 -92 -63.5 -154.5t-152.5 -62.5h-290q-92 0 -154 64t-62 153zM313 236q0 -67 63 -67h255 q27 0 47.5 21.5t20.5 50.5v149q0 67 -63 68h-255q-67 0 -68 -63v-159z" />
<glyph unicode="b" d="M145 217v1132h168v-366q14 5 48 5h290q89 0 152.5 -62.5t63.5 -154.5v-554q0 -89 -62.5 -153t-153.5 -64h-290q-89 0 -152.5 62.5t-63.5 154.5zM313 241q0 -29 20.5 -50.5t47.5 -21.5h255q63 0 63 67v521q0 62 -66 62h-2h-255q-63 0 -63 -67v-511z" />
<glyph unicode="c" d="M145 217v554q0 89 62.5 153t153.5 64h290q89 0 152.5 -62.5t63.5 -154.5v-72h-168v58q0 62 -66 62h-2h-255q-63 0 -63 -67v-511q0 -29 20.5 -50.5t47.5 -21.5h250q67 0 68 62v58h168v-72q0 -92 -63.5 -154.5t-152.5 -62.5h-290q-94 0 -155 61.5t-61 155.5z" />
<glyph unicode="d" d="M145 217v554q0 92 63.5 154.5t152.5 62.5h290q34 0 48 -5v366h168v-1132q0 -92 -63.5 -154.5t-152.5 -62.5h-290q-92 0 -154 64t-62 153zM313 236q0 -67 63 -67h255q27 0 47.5 21.5t20.5 50.5v511q0 67 -63 67h-255q-67 0 -68 -62v-521z" />
<glyph unicode="e" d="M145 217v554q0 92 63.5 154.5t152.5 62.5h290q92 0 154 -64t62 -153v-361h-554v-174q0 -67 63 -67h255q67 0 68 62v58h168v-72q0 -92 -63.5 -154.5t-152.5 -62.5h-290q-92 0 -154 64t-62 153zM313 578h386v174q0 67 -63 67h-255q-27 0 -47.5 -21.5t-20.5 -50.5v-169z" />
<glyph unicode="f" horiz-adv-x="761" d="M145 819v169h81v144q0 89 63 153t154 64h102q89 0 152.5 -62.5t63.5 -154.5v-72h-168v58q0 63 -68 63h-67q-63 0 -63 -68v-125h101v-169h-101v-819h-169v819h-81z" />
<glyph unicode="g" d="M145 -72h168v-58q0 -63 68 -63h255q63 0 63 68v130q-14 -5 -48 -5h-290q-89 0 -152.5 62.5t-63.5 154.5v554q0 89 62.5 153t153.5 64h290q89 0 152.5 -62.5t63.5 -154.5v-916q0 -89 -62.5 -152.5t-153.5 -63.5h-290q-89 0 -152.5 62.5t-63.5 153.5v73zM313 231 q0 -62 66 -62h2h255q63 0 63 67v511q0 29 -20.5 50.5t-47.5 21.5h-255q-63 0 -63 -67v-521z" />
<glyph unicode="h" d="M145 0v1349h168v-366q14 5 48 5h290q89 0 152.5 -62.5t63.5 -154.5v-771h-168v757q0 62 -66 62h-2h-255q-63 0 -63 -67v-752h-168z" />
<glyph unicode="i" horiz-adv-x="554" d="M193 0v988h168v-988h-168z" />
<glyph unicode="j" horiz-adv-x="698" d="M0 -72h169v-58q0 -63 67 -63h87q63 0 63 68v1113h168v-1133q0 -89 -62.5 -152.5t-154.5 -63.5h-120q-89 0 -153 62.5t-64 153.5v73z" />
<glyph unicode="k" horiz-adv-x="983" d="M145 0v1349h168v-737l280 279v97h168v-164l-289 -289l366 -366v-169h-168v101l-342 342h-15v-443h-168z" />
<glyph unicode="l" horiz-adv-x="554" d="M193 0v1349h168v-1349h-168z" />
<glyph unicode="m" horiz-adv-x="1204" d="M145 0v988h698q89 0 153 -62.5t64 -154.5v-771h-169v757q0 62 -65 62h-2h-140v-819h-168v819h-203v-819h-168z" />
<glyph unicode="n" d="M145 0v988h506q89 0 152.5 -62.5t63.5 -154.5v-771h-168v757q0 62 -66 62h-2h-318v-819h-168z" />
<glyph unicode="o" d="M145 217v554q0 89 62.5 153t153.5 64h290q89 0 152.5 -62.5t63.5 -154.5v-554q0 -92 -63.5 -154.5t-152.5 -62.5h-290q-94 0 -155 61.5t-61 155.5zM313 241q0 -29 20.5 -50.5t47.5 -21.5h250h2q66 0 66 62v526q0 62 -66 62h-2h-255q-63 0 -63 -67v-511z" />
<glyph unicode="p" d="M145 -361v1132q0 92 63.5 154.5t152.5 62.5h290q92 0 154 -64t62 -153v-554q0 -92 -63.5 -154.5t-152.5 -62.5h-290q-34 0 -48 5v-366h-168zM313 236q0 -67 63 -67h255h2q66 0 66 62v521q0 67 -63 67h-255q-27 0 -47.5 -21.5t-20.5 -50.5v-511z" />
<glyph unicode="q" d="M145 217v554q0 89 62.5 153t153.5 64h290q89 0 152.5 -62.5t63.5 -154.5v-1132h-168v366q-14 -5 -48 -5h-290q-89 0 -152.5 62.5t-63.5 154.5zM313 231q0 -62 66 -62h2h255q63 0 63 67v511q0 29 -20.5 50.5t-47.5 21.5h-255q-63 0 -63 -67v-521z" />
<glyph unicode="r" horiz-adv-x="939" d="M145 0v771q0 89 62.5 153t153.5 64h265q89 0 153 -62.5t64 -154.5v-72h-168v58q0 62 -66 62h-2h-231q-63 0 -63 -67v-752h-168z" />
<glyph unicode="s" d="M145 217v72h168v-58q0 -62 66 -62h2h255q63 0 63 67v135q0 63 -68 63h-270q-89 0 -152.5 62.5t-63.5 154.5v120q0 89 62.5 153t153.5 64h290q89 0 152.5 -62.5t63.5 -154.5v-72h-168v58q0 62 -66 62h-2h-255q-63 0 -63 -67v-87q0 -63 68 -63h270q89 0 152.5 -62.5 t63.5 -153.5v-169q0 -89 -62.5 -153t-153.5 -64h-290q-89 0 -152.5 62.5t-63.5 154.5z" />
<glyph unicode="t" horiz-adv-x="833" d="M96 819v169h135v361h169v-361h202v-169h-202v-583q0 -67 63 -67h38q67 0 68 62v58h168v-72q0 -92 -63.5 -154.5t-153.5 -62.5h-72q-92 0 -154.5 64t-62.5 153v602h-135z" />
<glyph unicode="u" d="M145 217v771h168v-757q0 -62 66 -62h2h318v819h168v-988h-506q-89 0 -152.5 62.5t-63.5 154.5z" />
<glyph unicode="v" d="M145 279v709h168v-641l193 -193l193 193v641h168v-709l-279 -279h-164z" />
<glyph unicode="w" horiz-adv-x="1204" d="M145 217v771h168v-757q0 -62 66 -62h2h67q67 0 68 62v757h168v-757q0 -62 66 -62h2h67q67 0 68 62v757h168v-771q0 -92 -63.5 -154.5t-153.5 -62.5h-106q-70 0 -132 43q-60 -43 -133 -43h-106q-89 0 -152.5 62.5t-63.5 154.5z" />
<glyph unicode="x" d="M145 0v289l207 207l-207 208v284h168v-217l193 -193l193 193v217h168v-284l-207 -208l207 -207v-289h-168v222l-193 192l-193 -192v-222h-168z" />
<glyph unicode="y" d="M106 -241l280 280l-241 240v709h168v-641l193 -193l193 193v641h168v-709l-641 -640z" />
<glyph unicode="z" horiz-adv-x="963" d="M145 0v289l481 482v48h-457v169h626v-289l-482 -482v-48h506v-169h-674z" />
<glyph unicode="{" horiz-adv-x="768" d="M145 545v113l127 127v516q0 89 63 153t154 64h135v-169h-120q-63 0 -63 -67v-559l-123 -123l123 -121v-599q0 -29 20.5 -51t46.5 -22h116v-168h-135q-94 0 -155.5 61t-61.5 155v562z" />
<glyph unicode="|" horiz-adv-x="554" d="M193 -361v1927h168v-1927h-168z" />
<glyph unicode="}" horiz-adv-x="768" d="M145 -193h115q27 0 47.5 22t20.5 51v599l123 121l-123 123v559q0 67 -63 67h-120v169h134q92 0 154.5 -64t62.5 -153v-516l128 -127v-113l-128 -128v-562q0 -94 -61.5 -155t-155.5 -61h-134v168z" />
<glyph unicode="~" horiz-adv-x="1052" d="M145 1144v61q0 63 44.5 103.5t104.5 40.5h154q58 0 104 -71t91 -71h106q46 0 46 41v53h113v-60q0 -63 -43 -105t-104 -42h-151q-65 0 -108.5 72t-91.5 72h-104q-46 0 -46 -43v-51h-115z" />
<glyph unicode="&#xa1;" horiz-adv-x="530" d="M169 -361v963h192v-963h-192zM169 795v193h192v-193h-192z" />
<glyph unicode="&#xa2;" horiz-adv-x="961" d="M145 448v530q0 82 57.5 141t142.5 59h55v111h169v-111h48q82 0 141 -57.5t59 -142.5v-79h-183v55q0 55 -61 56h-185q-60 0 -60 -63v-453q0 -65 58 -65h183q65 0 65 58v53h183v-80q0 -96 -59 -152.5t-134 -56.5h-55v-111h-169v111h-48q-89 0 -148 64.5t-59 132.5z" />
<glyph unicode="&#xa3;" horiz-adv-x="1204" d="M145 0v169h67q63 0 63 67v451h-130v168h130v277q0 89 62.5 153t154.5 64h231q89 0 153 -62.5t64 -154.5v-72h-169v58q0 63 -67 63h-198q-63 0 -63 -68v-258h222v-168h-222v-470q0 -19 -4 -48h621v-169h-915z" />
<glyph unicode="&#xa4;" horiz-adv-x="1252" d="M161 123l92 91q-12 36 -12 58v444q0 24 10 57q-24 27 -90 92l94 94q43 -43 85 -87q41 17 74 17h424q41 0 73 -17l86 87l94 -94l-89 -89q10 -27 10 -60v-444q0 -34 -10 -60l89 -89l-94 -94l-86 87q-31 -17 -73 -17h-424q-34 0 -72 17l-87 -87zM388 313q0 -58 55 -58h357 q53 0 53 51v386q0 51 -53 50h-361q-51 0 -51 -53v-376z" />
<glyph unicode="&#xa5;" d="M145 908v441h168v-373l193 -193l193 193v373h168v-441l-224 -224h152v-96h-202v-96h202v-97h-202v-395h-169v395h-207v97h207v96h-207v96h152z" />
<glyph unicode="&#xa6;" horiz-adv-x="554" d="M193 -361v908h168v-908h-168zM193 658v908h168v-908h-168z" />
<glyph unicode="&#xa7;" horiz-adv-x="1072" d="M142 -48l89 337h169l-14 -58q-17 -63 50 -62h147q60 0 80 67l36 135q7 27 -8.5 45t-42.5 18h-330q-72 0 -120.5 44.5t-48.5 114.5q0 27 10 58l135 481q24 89 103.5 153t171.5 64h180q17 0 46 -5l15 53h168l-89 -337h-169l15 58q14 63 -51 63h-147q-63 0 -79 -68l-36 -135 q-7 -27 8.5 -44.5t41.5 -17.5h330q72 0 120.5 -45t48.5 -114q0 -27 -10 -58l-135 -482q-24 -89 -103.5 -153t-170.5 -64h-181q-17 0 -46 5l-14 -53h-169zM332 665q-7 -27 9 -45t42 -18h330q24 0 51 -7l24 89q7 27 -8.5 45t-42.5 18h-330q-17 0 -50 5q-7 -22 -25 -87z" />
<glyph unicode="&#xa8;" d="M186 1537q0 48 33.5 82t81.5 34t82 -34t34 -82t-34 -81.5t-82 -33.5t-81.5 33.5t-33.5 81.5zM595 1537q0 48 34 82t82 34t81.5 -34t33.5 -82t-33.5 -81.5t-81.5 -33.5t-82 33.5t-34 81.5z" />
<glyph unicode="&#xa9;" horiz-adv-x="1252" d="M145 398v554q0 89 62.5 153t153.5 64h530q89 0 153 -63t64 -154v-554q0 -92 -63.5 -154.5t-153.5 -62.5h-530q-94 0 -155 61.5t-61 155.5zM265 383q0 -34 24 -58t53 -24h569q77 0 77 70v607q0 70 -77 70h-574q-72 0 -72 -75v-590zM393 540v262q0 58 39.5 98t97.5 40h181 q58 0 97.5 -40t39.5 -98v-43h-106v34q0 41 -43 41h-162q-39 0 -38 -44v-236q0 -46 43 -46h157q43 0 43 41v34h106v-43q0 -58 -39.5 -98t-97.5 -40h-181q-60 0 -98.5 38.5t-38.5 99.5z" />
<glyph unicode="&#xaa;" horiz-adv-x="698" d="M149 679v58h410v-58h-410zM149 908v111q0 53 37.5 88t88.5 35h164q19 0 26 -2v74q0 39 -34 39h-147q-39 0 -38 -36v-34h-97v43q0 51 37.5 87t88.5 36h164q53 0 87.5 -36t34.5 -87v-318q0 -51 -36 -87t-86 -36h-164q-53 0 -89.5 36.5t-36.5 86.5zM246 920q0 -39 36 -38 h144q39 0 39 41v84q0 39 -34 39h-147q-39 0 -38 -34v-92z" />
<glyph unicode="&#xab;" horiz-adv-x="1134" d="M210 475v127l448 289l26 -26l-325 -328l325 -325l-26 -26zM581 475v127l448 289l26 -26l-325 -328l325 -325l-26 -26z" />
<glyph unicode="&#xac;" horiz-adv-x="1026" d="M198 328v135h636v-463h-135v328h-501z" />
<glyph unicode="&#xad;" d="M231 410v168h554v-168h-554z" />
<glyph unicode="&#xae;" horiz-adv-x="1252" d="M145 395v549q0 92 61 156t155 64h528q87 0 149.5 -63t62.5 -157v-549q0 -92 -62.5 -154.5t-149.5 -62.5h-528q-94 0 -155 61.5t-61 155.5zM265 381q0 -31 24 -56.5t51 -25.5h566q31 0 54 20.5t23 51.5v602q0 29 -23 48.5t-54 19.5h-571q-70 0 -70 -75v-585zM390 400v535 h318q55 0 95 -40t40 -93v-82q0 -46 -24 -84q24 -46 24 -82v-154h-106v142q0 41 -36 41h-205v-183h-106zM496 692h200q41 0 41 43v50q0 46 -36 46h-205v-139z" />
<glyph unicode="&#xaf;" d="M145 1422v113h722v-113h-722z" />
<glyph unicode="&#xb0;" horiz-adv-x="611" d="M145 1091v184q0 29 21.5 51.5t50.5 22.5h181q70 0 69 -74v-184q0 -75 -69 -74h-181q-72 0 -72 74zM219 1111q0 -19 20 -20h137q19 1 19 20v144q0 19 -19 20h-140q-17 0 -17 -20v-144z" />
<glyph unicode="&#xb1;" d="M145 36v169h722v-169h-722zM145 530v169h277v277h168v-277h277v-169h-277v-277h-168v277h-277z" />
<glyph unicode="&#xb2;" horiz-adv-x="833" d="M145 578v277q0 70 48 117t115 47h203q51 0 50 46v108q0 51 -48 51h-190q-51 0 -51 -48v-44h-127v56q0 70 48 115.5t115 45.5h217q70 0 116 -47t46 -114v-133q0 -70 -48.5 -117t-113.5 -47h-202q-51 0 -51 -45v-140h289v39h126v-167h-542z" />
<glyph unicode="&#xb3;" horiz-adv-x="833" d="M145 742v53h127v-43q0 -46 51 -46h190q48 0 48 51v101q0 46 -50 46h-150v127h150q51 0 50 46v96q0 51 -48 51h-190q-51 0 -51 -48v-44h-127v56q0 70 48 115.5t115 45.5h217q70 0 116 -47t46 -114v-121q0 -55 -34 -101q34 -41 34 -99v-125q0 -67 -46 -115.5t-116 -48.5 h-217q-67 0 -115 47t-48 117z" />
<glyph unicode="&#xb4;" d="M263 1455l400 273l118 -155l-487 -151z" />
<glyph unicode="&#xb6;" horiz-adv-x="1060" d="M145 819v313q0 89 50.5 153t122.5 64h598v-1710h-135v1542h-116v-1542h-135v963h-212q-70 0 -121.5 63t-51.5 154z" />
<glyph unicode="&#xb7;" horiz-adv-x="602" d="M205 398v192h193v-192h-193z" />
<glyph unicode="&#xb8;" d="M332 -222h82v-26q0 -31 32 -31h178q29 0 29 31v65q0 34 -34 34h-58q-43 0 -74.5 30t-31.5 73v58h82v-51q0 -29 32 -28h60q43 0 74.5 -30.5t31.5 -75.5v-82q0 -43 -30 -74.5t-76 -31.5h-190q-43 0 -75 30t-32 76v33z" />
<glyph unicode="&#xb9;" horiz-adv-x="491" d="M133 1224v125h199v-771h-127v646h-72z" />
<glyph unicode="&#xba;" horiz-adv-x="698" d="M147 908v318q0 51 36 87t89 36h164q51 0 87 -36t36 -87v-318q0 -51 -36 -87t-87 -36h-164q-53 0 -89 35t-36 88zM149 679v58h410v-58h-410zM243 923q0 -41 39 -41h142q39 0 39 36v299q0 36 -39 36h-145q-36 0 -36 -39v-291z" />
<glyph unicode="&#xbb;" horiz-adv-x="1134" d="M80 212l325 325l-325 328l26 26l448 -289v-127l-448 -289zM451 212l325 325l-325 328l26 26l448 -289v-127l-448 -289z" />
<glyph unicode="&#xbc;" horiz-adv-x="1402" d="M145 1224v125h200v-771h-128v646h-72zM222 19l691 1354l84 -43l-691 -1354zM752 265v347l135 133l89 -92l-97 -96v-164h253v376h126v-771h-126v267h-380z" />
<glyph unicode="&#xbd;" horiz-adv-x="1479" d="M145 1224v125h200v-771h-128v646h-72zM222 19l691 1354l84 -43l-691 -1354zM793 -2v277q0 70 48 117t116 47h202q51 0 51 45v109q0 51 -49 50h-190q-51 0 -51 -48v-43h-127v55q0 70 48 116t116 46h216q70 0 116 -47t46 -115v-132q0 -70 -48.5 -117t-113.5 -47h-202 q-51 0 -51 -46v-140h290v39h125v-166h-542z" />
<glyph unicode="&#xbe;" horiz-adv-x="1648" d="M145 742v53h127v-43q0 -46 51 -46h190q48 0 48 51v101q0 46 -50 46h-150v127h150q51 0 50 46v96q0 51 -48 51h-190q-51 0 -51 -48v-44h-127v56q0 70 48 115.5t115 45.5h217q70 0 116 -47t46 -114v-121q0 -55 -34 -101q34 -41 34 -99v-125q0 -67 -46 -115.5t-116 -48.5 h-217q-67 0 -115 47t-48 117zM467 19l692 1354l84 -43l-691 -1354zM997 265v347l135 133l90 -92l-97 -96v-164h253v376h125v-771h-125v267h-381z" />
<glyph unicode="&#xbf;" horiz-adv-x="1086" d="M145 120q0 92 63.5 154.5t152.5 62.5h82q67 0 68 63v251h193v-290q0 -92 -64 -154t-153 -62h-82q-67 0 -68 -63v-183q0 -67 63 -68h282q67 0 67 63v82h193v-121q0 -92 -64 -154t-153 -62h-364q-92 0 -154 63.5t-62 152.5v265zM511 795v193h193v-193h-193z" />
<glyph unicode="&#xc0;" d="M145 0v1132q0 92 63.5 154.5t152.5 62.5h290q89 0 152.5 -62.5t63.5 -154.5v-1132h-168v506h-386v-506h-168zM231 1573l118 155l400 -273l-31 -33zM313 675h386v443q0 63 -68 63h-250q-67 0 -68 -63v-443z" />
<glyph unicode="&#xc1;" d="M145 0v1132q0 92 63.5 154.5t152.5 62.5h290q89 0 152.5 -62.5t63.5 -154.5v-1132h-168v506h-386v-506h-168zM263 1455l400 273l118 -155l-487 -151zM313 675h386v443q0 63 -68 63h-250q-67 0 -68 -63v-443z" />
<glyph unicode="&#xc2;" d="M145 0v1132q0 92 63.5 154.5t152.5 62.5h290q89 0 152.5 -62.5t63.5 -154.5v-1132h-168v506h-386v-506h-168zM217 1501l234 234h113l234 -234l-80 -79l-212 209l-210 -209zM313 675h386v443q0 63 -68 63h-250q-67 0 -68 -63v-443z" />
<glyph unicode="&#xc3;" d="M145 0v1132q0 92 63.5 154.5t152.5 62.5h290q89 0 152.5 -62.5t63.5 -154.5v-1132h-168v506h-386v-506h-168zM159 1472v60q0 63 44.5 104t104.5 41h92q72 0 126.5 -71t97.5 -71h70q46 0 46 41v53h113v-60q0 -63 -43.5 -105t-103.5 -42h-89q-77 0 -129 72t-98 72h-70 q-46 0 -45 -43v-51h-116zM313 675h386v443q0 63 -68 63h-250q-67 0 -68 -63v-443z" />
<glyph unicode="&#xc4;" d="M145 0v1132q0 92 63.5 154.5t152.5 62.5h290q89 0 152.5 -62.5t63.5 -154.5v-1132h-168v506h-386v-506h-168zM186 1537q0 48 33.5 82t81.5 34t82 -34t34 -82t-34 -81.5t-82 -33.5t-81.5 33.5t-33.5 81.5zM313 675h386v443q0 63 -68 63h-250q-67 0 -68 -63v-443zM595 1537 q0 48 34 82t82 34t81.5 -34t33.5 -82t-33.5 -81.5t-81.5 -33.5t-82 33.5t-34 81.5z" />
<glyph unicode="&#xc5;" d="M142 0v1132q0 92 64 154.5t153 62.5h289q89 0 153 -62.5t64 -154.5v-1132h-169v506h-385v-506h-169zM311 675h385v443q0 63 -67 63h-251q-67 0 -67 -63v-443zM332 1597.5q0 72.5 51 122t123 49.5t122.5 -49.5t50.5 -122t-50.5 -124t-122.5 -51.5t-123 51.5t-51 124z M400 1595q7 -99 106 -106q99 7 106 106q-2 46 -31 76t-75 30t-75 -30t-31 -76z" />
<glyph unicode="&#xc6;" horiz-adv-x="1566" d="M145 0v1132q0 92 63.5 154.5t152.5 62.5h1061v-168h-555v-386h436v-169h-436v-457h555v-169h-723v506h-386v-506h-168zM313 675h386v506h-318q-67 0 -68 -63v-443z" />
<glyph unicode="&#xc7;" d="M145 217v915q0 89 62.5 153t153.5 64h290q89 0 152.5 -62.5t63.5 -154.5v-72h-168v58q0 63 -68 63h-255q-63 0 -63 -68v-872q0 -29 20.5 -50.5t47.5 -21.5h250q67 0 68 62v58h168v-72q0 -92 -63.5 -154.5t-152.5 -62.5h-114v-39q0 -29 32 -28h60q43 0 74.5 -30.5 t31.5 -75.5v-82q0 -43 -30 -74.5t-76 -31.5h-190q-43 0 -75 30t-32 76v33h82v-26q0 -31 32 -31h178q29 0 29 31v65q0 34 -34 34h-58q-43 0 -74.5 30t-31.5 73v46h-94q-94 0 -155 61.5t-61 155.5z" />
<glyph unicode="&#xc8;" d="M145 0v1349h722v-168h-554v-386h436v-169h-436v-457h554v-169h-722zM231 1573l118 155l400 -273l-31 -33z" />
<glyph unicode="&#xc9;" d="M145 0v1349h722v-168h-554v-386h436v-169h-436v-457h554v-169h-722zM263 1455l400 273l118 -155l-487 -151z" />
<glyph unicode="&#xca;" d="M145 0v1349h722v-168h-554v-386h436v-169h-436v-457h554v-169h-722zM217 1501l234 234h113l234 -234l-80 -79l-212 209l-210 -209z" />
<glyph unicode="&#xcb;" d="M145 0v1349h722v-168h-554v-386h436v-169h-436v-457h554v-169h-722zM186 1537q0 48 33.5 82t81.5 34t82 -34t34 -82t-34 -81.5t-82 -33.5t-81.5 33.5t-33.5 81.5zM595 1537q0 48 34 82t82 34t81.5 -34t33.5 -82t-33.5 -81.5t-81.5 -33.5t-82 33.5t-34 81.5z" />
<glyph unicode="&#xcc;" horiz-adv-x="554" d="M-70 1573l118 155l400 -273l-31 -33zM193 0v1349h168v-1349h-168z" />
<glyph unicode="&#xcd;" horiz-adv-x="554" d="M108 1455l400 273l118 -155l-486 -151zM193 0v1349h168v-1349h-168z" />
<glyph unicode="&#xce;" horiz-adv-x="554" d="M0 1501l234 234h113l234 -234l-80 -79l-212 209l-209 -209zM205 0v1349h168v-1349h-168z" />
<glyph unicode="&#xcf;" horiz-adv-x="554" d="M-39 1537q0 48 34 82t82 34t82 -34t34 -82t-34 -81.5t-82 -33.5t-82 33.5t-34 81.5zM198 0v1349h168v-1349h-168zM371 1537q0 48 34 82t82 34t81.5 -34t33.5 -82t-33.5 -81.5t-81.5 -33.5t-82 33.5t-34 81.5z" />
<glyph unicode="&#xd0;" d="M48 891v97h97v361h506q89 0 152.5 -62.5t63.5 -154.5v-915q0 -92 -63.5 -154.5t-152.5 -62.5h-506v891h-97zM313 169h318q68 -1 68 62v887q0 63 -68 63h-318v-193h97v-97h-97v-722z" />
<glyph unicode="&#xd1;" d="M145 0v1349h200l354 -976v976h168v-1349h-212l-342 942v-942h-168zM159 1472v60q0 63 44.5 104t104.5 41h92q72 0 126.5 -71t97.5 -71h70q46 0 46 41v53h113v-60q0 -63 -43.5 -105t-103.5 -42h-89q-77 0 -129 72t-98 72h-70q-46 0 -45 -43v-51h-116z" />
<glyph unicode="&#xd2;" d="M145 217v915q0 89 62.5 153t153.5 64h290q89 0 152.5 -62.5t63.5 -154.5v-915q0 -92 -63.5 -154.5t-152.5 -62.5h-290q-94 0 -155 61.5t-61 155.5zM231 1573l118 155l400 -273l-31 -33zM313 241q0 -29 20.5 -50.5t47.5 -21.5h250q68 -1 68 62v887q0 63 -68 63h-255 q-63 0 -63 -68v-872z" />
<glyph unicode="&#xd3;" d="M145 217v915q0 89 62.5 153t153.5 64h290q89 0 152.5 -62.5t63.5 -154.5v-915q0 -92 -63.5 -154.5t-152.5 -62.5h-290q-94 0 -155 61.5t-61 155.5zM263 1455l400 273l118 -155l-487 -151zM313 241q0 -29 20.5 -50.5t47.5 -21.5h250q68 -1 68 62v887q0 63 -68 63h-255 q-63 0 -63 -68v-872z" />
<glyph unicode="&#xd4;" d="M145 217v915q0 89 62.5 153t153.5 64h290q89 0 152.5 -62.5t63.5 -154.5v-915q0 -92 -63.5 -154.5t-152.5 -62.5h-290q-94 0 -155 61.5t-61 155.5zM217 1501l234 234h113l234 -234l-80 -79l-212 209l-210 -209zM313 241q0 -29 20.5 -50.5t47.5 -21.5h250q68 -1 68 62v887 q0 63 -68 63h-255q-63 0 -63 -68v-872z" />
<glyph unicode="&#xd5;" d="M145 217v915q0 89 62.5 153t153.5 64h290q89 0 152.5 -62.5t63.5 -154.5v-915q0 -92 -63.5 -154.5t-152.5 -62.5h-290q-94 0 -155 61.5t-61 155.5zM159 1472v60q0 63 44.5 104t104.5 41h92q72 0 126.5 -71t97.5 -71h70q46 0 46 41v53h113v-60q0 -63 -43.5 -105 t-103.5 -42h-89q-77 0 -129 72t-98 72h-70q-46 0 -45 -43v-51h-116zM313 241q0 -29 20.5 -50.5t47.5 -21.5h250q68 -1 68 62v887q0 63 -68 63h-255q-63 0 -63 -68v-872z" />
<glyph unicode="&#xd6;" d="M145 217v915q0 89 62.5 153t153.5 64h290q89 0 152.5 -62.5t63.5 -154.5v-915q0 -92 -63.5 -154.5t-152.5 -62.5h-290q-94 0 -155 61.5t-61 155.5zM186 1537q0 48 33.5 82t81.5 34t82 -34t34 -82t-34 -81.5t-82 -33.5t-81.5 33.5t-33.5 81.5zM313 241q0 -29 20.5 -50.5 t47.5 -21.5h250q68 -1 68 62v887q0 63 -68 63h-255q-63 0 -63 -68v-872zM595 1537q0 48 34 82t82 34t81.5 -34t33.5 -82t-33.5 -81.5t-81.5 -33.5t-82 33.5t-34 81.5z" />
<glyph unicode="&#xd7;" d="M188 692l120 120l198 -198l195 196l121 -121l-196 -195l193 -193l-120 -120l-193 192l-195 -195l-121 121l196 195z" />
<glyph unicode="&#xd8;" d="M145 217v915q0 89 62.5 153t153.5 64h290q41 0 74 -14l27 62l89 -36l-34 -79q60 -60 60 -150v-915q0 -92 -63.5 -154.5t-152.5 -62.5h-290q-39 0 -67 10l-24 -58l-89 36l29 70q-65 60 -65 159zM313 316l347 857q-12 7 -29 8h-255q-63 0 -63 -68v-797zM359 173 q14 -5 22 -4h250q68 -1 68 62v779z" />
<glyph unicode="&#xd9;" d="M145 217v1132h168v-1118q0 -63 68 -62h250q67 0 68 62v1118h168v-1132q0 -92 -63.5 -154.5t-152.5 -62.5h-290q-89 0 -152.5 62.5t-63.5 154.5zM231 1573l118 155l400 -273l-31 -33z" />
<glyph unicode="&#xda;" d="M145 217v1132h168v-1118q0 -63 68 -62h250q67 0 68 62v1118h168v-1132q0 -92 -63.5 -154.5t-152.5 -62.5h-290q-89 0 -152.5 62.5t-63.5 154.5zM263 1455l400 273l118 -155l-487 -151z" />
<glyph unicode="&#xdb;" d="M145 217v1132h168v-1118q0 -63 68 -62h250q67 0 68 62v1118h168v-1132q0 -92 -63.5 -154.5t-152.5 -62.5h-290q-89 0 -152.5 62.5t-63.5 154.5zM154 1501l234 234h113l234 -234l-80 -79l-212 209l-209 -209z" />
<glyph unicode="&#xdc;" d="M145 217v1132h168v-1118q0 -63 68 -62h250q67 0 68 62v1118h168v-1132q0 -92 -63.5 -154.5t-152.5 -62.5h-290q-89 0 -152.5 62.5t-63.5 154.5zM186 1537q0 48 33.5 82t81.5 34t82 -34t34 -82t-34 -81.5t-82 -33.5t-81.5 33.5t-33.5 81.5zM595 1537q0 48 34 82t82 34 t81.5 -34t33.5 -82t-33.5 -81.5t-81.5 -33.5t-82 33.5t-34 81.5z" />
<glyph unicode="&#xdd;" d="M145 843v506h168v-491q0 -63 68 -63h250q67 0 68 63v491h168v-506q0 -92 -63.5 -154.5t-152.5 -62.5h-58v-626h-169v626h-63q-89 0 -152.5 63t-63.5 154zM263 1455l400 273l118 -155l-487 -151z" />
<glyph unicode="&#xde;" d="M145 0v1566h168v-376h338q92 0 154 -63.5t62 -153.5v-289q0 -94 -61 -155.5t-155 -61.5h-338v-467h-168zM313 636h318q27 0 47.5 21.5t20.5 50.5v246q0 67 -63 68h-323v-386z" />
<glyph unicode="&#xdf;" d="M145 -275v1407q0 92 63.5 154.5t152.5 62.5h212q92 0 154.5 -63.5t62.5 -153.5v-33q0 -87 -45 -147q-55 -60 -104 -111t-48 -82q0 -48 86 -80q188 -70 188 -228v-234q0 -94 -61 -155.5t-155 -61.5h-232v169h212q27 0 47.5 21.5t20.5 50.5v210q0 53 -101 98 q-161 72 -162 205q0 108 93 196t93 120v43q0 67 -63 68h-178q-67 0 -68 -63v-1393h-168z" />
<glyph unicode="&#xe0;" d="M145 217v193q0 92 63.5 154t152.5 62h290q34 0 48 -4v130q0 67 -63 67h-255q-67 0 -68 -62v-58h-168v72q0 92 63.5 154.5t152.5 62.5h290q92 0 154 -64t62 -153v-554q0 -92 -63.5 -154.5t-152.5 -62.5h-290q-92 0 -154 64t-62 153zM231 1236l118 154l400 -272l-31 -34z M313 236q0 -67 63 -67h255q27 0 47.5 21.5t20.5 50.5v149q0 67 -63 68h-255q-67 0 -68 -63v-159z" />
<glyph unicode="&#xe1;" d="M145 217v193q0 92 63.5 154t152.5 62h290q34 0 48 -4v130q0 67 -63 67h-255q-67 0 -68 -62v-58h-168v72q0 92 63.5 154.5t152.5 62.5h290q92 0 154 -64t62 -153v-554q0 -92 -63.5 -154.5t-152.5 -62.5h-290q-92 0 -154 64t-62 153zM260 1118l400 272l118 -154l-486 -152z M313 236q0 -67 63 -67h255q27 0 47.5 21.5t20.5 50.5v149q0 67 -63 68h-255q-67 0 -68 -63v-159z" />
<glyph unicode="&#xe2;" d="M145 217v193q0 92 63.5 154t152.5 62h290q34 0 48 -4v130q0 67 -63 67h-255q-67 0 -68 -62v-58h-168v72q0 92 63.5 154.5t152.5 62.5h290q92 0 154 -64t62 -153v-554q0 -92 -63.5 -154.5t-152.5 -62.5h-290q-92 0 -154 64t-62 153zM217 1164l234 233h113l234 -233 l-80 -80l-212 210l-210 -210zM313 236q0 -67 63 -67h255q27 0 47.5 21.5t20.5 50.5v149q0 67 -63 68h-255q-67 0 -68 -63v-159z" />
<glyph unicode="&#xe3;" d="M145 217v193q0 92 63.5 154t152.5 62h290q34 0 48 -4v130q0 67 -63 67h-255q-67 0 -68 -62v-58h-168v72q0 92 63.5 154.5t152.5 62.5h290q92 0 154 -64t62 -153v-554q0 -92 -63.5 -154.5t-152.5 -62.5h-290q-92 0 -154 64t-62 153zM159 1135v60q0 63 44.5 104t104.5 41 h92q72 0 126.5 -71.5t97.5 -71.5h70q46 0 46 41v53h113v-60q0 -63 -43.5 -105t-103.5 -42h-89q-77 0 -129 72.5t-98 72.5h-70q-46 0 -45 -44v-50h-116zM313 236q0 -67 63 -67h255q27 0 47.5 21.5t20.5 50.5v149q0 67 -63 68h-255q-67 0 -68 -63v-159z" />
<glyph unicode="&#xe4;" d="M145 217v193q0 92 63.5 154t152.5 62h290q34 0 48 -4v130q0 67 -63 67h-255q-67 0 -68 -62v-58h-168v72q0 92 63.5 154.5t152.5 62.5h290q92 0 154 -64t62 -153v-554q0 -92 -63.5 -154.5t-152.5 -62.5h-290q-92 0 -154 64t-62 153zM186 1200q0 48 33.5 82t81.5 34t82 -34 t34 -82t-34 -82t-82 -34t-81.5 34t-33.5 82zM313 236q0 -67 63 -67h255q27 0 47.5 21.5t20.5 50.5v149q0 67 -63 68h-255q-67 0 -68 -63v-159zM595 1200q0 48 34 82t82 34t81.5 -34t33.5 -82t-33.5 -82t-81.5 -34t-82 34t-34 82z" />
<glyph unicode="&#xe5;" d="M145 217v193q0 92 63.5 154t152.5 62h290q34 0 48 -4v130q0 67 -63 67h-255q-67 0 -68 -62v-58h-168v72q0 92 63.5 154.5t152.5 62.5h290q92 0 154 -64t62 -153v-554q0 -92 -63.5 -154.5t-152.5 -62.5h-290q-92 0 -154 64t-62 153zM313 236q0 -67 63 -67h255 q27 0 47.5 21.5t20.5 50.5v149q0 67 -63 68h-255q-67 0 -68 -63v-159zM332 1260.5q0 72.5 51 121.5t123 49t122.5 -49t50.5 -121.5t-50.5 -124.5t-122.5 -52t-123 52t-51 124.5zM400 1258q7 -99 106 -106q99 7 106 106q-2 46 -31 76t-75 30t-75 -30.5t-31 -75.5z" />
<glyph unicode="&#xe6;" horiz-adv-x="1566" d="M145 217v193q0 92 63.5 154t152.5 62h290q34 0 48 -4v130q0 67 -63 67h-255q-67 0 -68 -62v-58h-168v72q0 92 63.5 154.5t152.5 62.5h290q75 0 132 -46q58 46 133 46h289q92 0 154.5 -64t62.5 -153v-361h-555v-174q0 -67 63 -67h255q67 0 68 62v58h169v-72 q0 -92 -64 -154.5t-153 -62.5h-289q-72 0 -133 43q-60 -43 -132 -43h-290q-92 0 -154 64t-62 153zM313 236q0 -67 63 -67h255q27 0 47.5 21.5t20.5 50.5v149q0 67 -63 68h-255q-67 0 -68 -63v-159zM867 578h386v174q0 67 -63 67h-255q-27 0 -47.5 -21.5t-20.5 -50.5v-169z " />
<glyph unicode="&#xe7;" d="M145 217v554q0 89 62.5 153t153.5 64h290q89 0 152.5 -62.5t63.5 -154.5v-72h-168v58q0 63 -68 62h-255q-63 0 -63 -67v-511q0 -29 20.5 -50.5t47.5 -21.5h250q67 0 68 62v58h168v-72q0 -92 -63.5 -154.5t-152.5 -62.5h-114v-39q0 -29 32 -28h60q43 0 74.5 -30.5 t31.5 -75.5v-82q0 -43 -30 -74.5t-76 -31.5h-190q-43 0 -75 30t-32 76v33h82v-26q0 -31 32 -31h178q29 0 29 31v65q0 34 -34 34h-58q-43 0 -74.5 30t-31.5 73v46h-94q-94 0 -155 61.5t-61 155.5z" />
<glyph unicode="&#xe8;" d="M145 217v554q0 92 63.5 154.5t152.5 62.5h290q92 0 154 -64t62 -153v-361h-554v-174q0 -67 63 -67h255q67 0 68 62v58h168v-72q0 -92 -63.5 -154.5t-152.5 -62.5h-290q-92 0 -154 64t-62 153zM231 1236l118 154l400 -272l-31 -34zM313 578h386v174q0 67 -63 67h-255 q-27 0 -47.5 -21.5t-20.5 -50.5v-169z" />
<glyph unicode="&#xe9;" d="M145 217v554q0 92 63.5 154.5t152.5 62.5h290q92 0 154 -64t62 -153v-361h-554v-174q0 -67 63 -67h255q67 0 68 62v58h168v-72q0 -92 -63.5 -154.5t-152.5 -62.5h-290q-92 0 -154 64t-62 153zM260 1118l400 272l118 -154l-486 -152zM313 578h386v174q0 67 -63 67h-255 q-27 0 -47.5 -21.5t-20.5 -50.5v-169z" />
<glyph unicode="&#xea;" d="M145 217v554q0 92 63.5 154.5t152.5 62.5h290q92 0 154 -64t62 -153v-361h-554v-174q0 -67 63 -67h255q67 0 68 62v58h168v-72q0 -92 -63.5 -154.5t-152.5 -62.5h-290q-92 0 -154 64t-62 153zM217 1164l234 233h113l234 -233l-80 -80l-212 210l-210 -210zM313 578h386 v174q0 67 -63 67h-255q-27 0 -47.5 -21.5t-20.5 -50.5v-169z" />
<glyph unicode="&#xeb;" d="M145 217v554q0 92 63.5 154.5t152.5 62.5h290q92 0 154 -64t62 -153v-361h-554v-174q0 -67 63 -67h255q67 0 68 62v58h168v-72q0 -92 -63.5 -154.5t-152.5 -62.5h-290q-92 0 -154 64t-62 153zM186 1200q0 48 33.5 82t81.5 34t82 -34t34 -82t-34 -82t-82 -34t-81.5 34 t-33.5 82zM313 578h386v174q0 67 -63 67h-255q-27 0 -47.5 -21.5t-20.5 -50.5v-169zM595 1200q0 48 34 82t82 34t81.5 -34t33.5 -82t-33.5 -82t-81.5 -34t-82 34t-34 82z" />
<glyph unicode="&#xec;" horiz-adv-x="554" d="M-70 1236l118 154l400 -272l-31 -34zM193 0v988h168v-988h-168z" />
<glyph unicode="&#xed;" horiz-adv-x="554" d="M104 1118l400 272l118 -154l-487 -152zM193 0v988h168v-988h-168z" />
<glyph unicode="&#xee;" horiz-adv-x="554" d="M-10 1164l234 233h113l234 -233l-79 -80l-213 210l-209 -210zM193 0v988h168v-988h-168z" />
<glyph unicode="&#xef;" horiz-adv-x="554" d="M-41 1200q0 48 34 82t82 34t81.5 -34t33.5 -82t-33.5 -82t-81.5 -34t-82 34t-34 82zM193 0v988h168v-988h-168zM369 1200q0 48 33.5 82t81.5 34t82 -34t34 -82t-34 -82t-82 -34t-81.5 34t-33.5 82z" />
<glyph unicode="&#xf0;" horiz-adv-x="963" d="M145 217v554q0 92 63.5 154.5t152.5 62.5h241q34 0 49 -5v53h-97v96h94q-12 48 -60 49h-227v168h241q92 0 154.5 -63.5t62.5 -153.5h97v-96h-97v-819q0 -92 -63.5 -154.5t-153.5 -62.5h-241q-92 0 -154 64t-62 153zM313 236q0 -67 63 -67h207q27 0 47.5 21.5t20.5 50.5 v511q0 67 -63 67h-207q-67 0 -68 -62v-521z" />
<glyph unicode="&#xf1;" d="M145 0v988h506q89 0 152.5 -62.5t63.5 -154.5v-771h-168v757q0 63 -68 62h-318v-819h-168zM159 1135v60q0 63 44.5 104t104.5 41h92q72 0 126.5 -71.5t97.5 -71.5h70q46 0 46 41v53h113v-60q0 -63 -43.5 -105t-103.5 -42h-89q-77 0 -129 72.5t-98 72.5h-70q-46 0 -45 -44 v-50h-116z" />
<glyph unicode="&#xf2;" d="M145 217v554q0 89 62.5 153t153.5 64h290q89 0 152.5 -62.5t63.5 -154.5v-554q0 -92 -63.5 -154.5t-152.5 -62.5h-290q-94 0 -155 61.5t-61 155.5zM231 1236l118 154l400 -272l-31 -34zM313 241q0 -29 20.5 -50.5t47.5 -21.5h250q68 -1 68 62v526q0 63 -68 62h-255 q-63 0 -63 -67v-511z" />
<glyph unicode="&#xf3;" d="M145 217v554q0 89 62.5 153t153.5 64h290q89 0 152.5 -62.5t63.5 -154.5v-554q0 -92 -63.5 -154.5t-152.5 -62.5h-290q-94 0 -155 61.5t-61 155.5zM260 1118l400 272l118 -154l-486 -152zM313 241q0 -29 20.5 -50.5t47.5 -21.5h250q68 -1 68 62v526q0 63 -68 62h-255 q-63 0 -63 -67v-511z" />
<glyph unicode="&#xf4;" d="M145 217v554q0 89 62.5 153t153.5 64h290q89 0 152.5 -62.5t63.5 -154.5v-554q0 -92 -63.5 -154.5t-152.5 -62.5h-290q-94 0 -155 61.5t-61 155.5zM217 1164l234 233h113l234 -233l-80 -80l-212 210l-210 -210zM313 241q0 -29 20.5 -50.5t47.5 -21.5h250q68 -1 68 62v526 q0 63 -68 62h-255q-63 0 -63 -67v-511z" />
<glyph unicode="&#xf5;" d="M145 217v554q0 89 62.5 153t153.5 64h290q89 0 152.5 -62.5t63.5 -154.5v-554q0 -92 -63.5 -154.5t-152.5 -62.5h-290q-94 0 -155 61.5t-61 155.5zM159 1135v60q0 63 44.5 104t104.5 41h92q72 0 126.5 -71.5t97.5 -71.5h70q46 0 46 41v53h113v-60q0 -63 -43.5 -105 t-103.5 -42h-89q-77 0 -129 72.5t-98 72.5h-70q-46 0 -45 -44v-50h-116zM313 241q0 -29 20.5 -50.5t47.5 -21.5h250q68 -1 68 62v526q0 63 -68 62h-255q-63 0 -63 -67v-511z" />
<glyph unicode="&#xf6;" d="M145 217v554q0 89 62.5 153t153.5 64h290q89 0 152.5 -62.5t63.5 -154.5v-554q0 -92 -63.5 -154.5t-152.5 -62.5h-290q-94 0 -155 61.5t-61 155.5zM186 1200q0 48 33.5 82t81.5 34t82 -34t34 -82t-34 -82t-82 -34t-81.5 34t-33.5 82zM313 241q0 -29 20.5 -50.5 t47.5 -21.5h250q68 -1 68 62v526q0 63 -68 62h-255q-63 0 -63 -67v-511zM595 1200q0 48 34 82t82 34t81.5 -34t33.5 -82t-33.5 -82t-81.5 -34t-82 34t-34 82z" />
<glyph unicode="&#xf7;" d="M145 410v168h722v-168h-722zM410 133v192h192v-192h-192zM410 663v192h192v-192h-192z" />
<glyph unicode="&#xf8;" d="M145 217v554q0 89 62.5 153t153.5 64h290q43 0 86 -19l39 67l84 -48l-43 -77q51 -58 50 -140v-554q0 -92 -63.5 -154.5t-152.5 -62.5h-290q-39 0 -67 10l-34 -58l-84 48l34 58q-65 60 -65 159zM313 236l335 581q-5 2 -17 2h-255q-63 0 -63 -67v-516zM386 169h245 q68 -1 68 62v477z" />
<glyph unicode="&#xf9;" d="M145 217v771h168v-757q0 -63 68 -62h318v819h168v-988h-506q-89 0 -152.5 62.5t-63.5 154.5zM231 1236l118 154l400 -272l-31 -34z" />
<glyph unicode="&#xfa;" d="M145 217v771h168v-757q0 -63 68 -62h318v819h168v-988h-506q-89 0 -152.5 62.5t-63.5 154.5zM260 1118l400 272l118 -154l-486 -152z" />
<glyph unicode="&#xfb;" d="M145 217v771h168v-757q0 -63 68 -62h318v819h168v-988h-506q-89 0 -152.5 62.5t-63.5 154.5zM217 1164l234 233h113l234 -233l-80 -80l-212 210l-210 -210z" />
<glyph unicode="&#xfc;" d="M145 217v771h168v-757q0 -63 68 -62h318v819h168v-988h-506q-89 0 -152.5 62.5t-63.5 154.5zM186 1200q0 48 33.5 82t81.5 34t82 -34t34 -82t-34 -82t-82 -34t-81.5 34t-33.5 82zM595 1200q0 48 34 82t82 34t81.5 -34t33.5 -82t-33.5 -82t-81.5 -34t-82 34t-34 82z" />
<glyph unicode="&#xfd;" d="M106 -241l280 280l-241 240v709h168v-641l193 -193l193 193v641h168v-709l-641 -640zM263 1118l400 272l118 -154l-487 -152z" />
<glyph unicode="&#xfe;" d="M145 -361v1710h168v-366q14 5 48 5h290q89 0 152.5 -62.5t63.5 -154.5v-554q0 -92 -63.5 -154.5t-152.5 -62.5h-290q-34 0 -48 5v-366h-168zM313 236q0 -67 63 -67h255q68 -1 68 62v526q0 63 -68 62h-255q-63 0 -63 -67v-516z" />
<glyph unicode="&#xff;" d="M106 -241l280 280l-241 240v709h168v-641l193 -193l193 193v641h168v-709l-641 -640zM186 1200q0 48 33.5 82t81.5 34t82 -34t34 -82t-34 -82t-82 -34t-81.5 34t-33.5 82zM595 1200q0 48 34 82t82 34t81.5 -34t33.5 -82t-33.5 -82t-81.5 -34t-82 34t-34 82z" />
<glyph unicode="&#x152;" horiz-adv-x="1566" d="M145 217v915q0 89 62.5 153t153.5 64h1061v-168h-555v-386h436v-169h-436v-457h555v-169h-1061q-94 0 -155 61.5t-61 155.5zM313 241q0 -29 20.5 -50.5t47.5 -21.5h318v1012h-323q-63 0 -63 -68v-872z" />
<glyph unicode="&#x153;" horiz-adv-x="1566" d="M145 217v554q0 89 62.5 153t153.5 64h290q72 0 132 -46q58 46 133 46h289q92 0 154.5 -64t62.5 -153v-361h-555v-174q0 -67 63 -67h255q67 0 68 62v58h169v-72q0 -92 -64 -154.5t-153 -62.5h-289q-75 0 -133 46q-58 -46 -132 -46h-290q-94 0 -155 61.5t-61 155.5z M313 241q0 -29 20.5 -50.5t47.5 -21.5h250q68 -1 68 62v526q0 63 -68 62h-255q-63 0 -63 -67v-511zM867 578h386v174q0 67 -63 67h-255q-27 0 -47.5 -21.5t-20.5 -50.5v-169z" />
<glyph unicode="&#x178;" d="M145 843v506h168v-491q0 -63 68 -63h250q67 0 68 63v491h168v-506q0 -92 -63.5 -154.5t-152.5 -62.5h-58v-626h-169v626h-63q-89 0 -152.5 63t-63.5 154zM186 1537q0 48 33.5 82t81.5 34t82 -34t34 -82t-34 -81.5t-82 -33.5t-81.5 33.5t-33.5 81.5zM595 1537q0 48 34 82 t82 34t81.5 -34t33.5 -82t-33.5 -81.5t-81.5 -33.5t-82 33.5t-34 81.5z" />
<glyph unicode="&#x2c6;" d="M217 1501l234 234h113l234 -234l-80 -79l-212 209l-210 -209z" />
<glyph unicode="&#x2dc;" d="M159 1472v60q0 63 44.5 104t104.5 41h92q72 0 126.5 -71t97.5 -71h70q46 0 46 41v53h113v-60q0 -63 -43.5 -105t-103.5 -42h-89q-77 0 -129 72t-98 72h-70q-46 0 -45 -43v-51h-116z" />
<glyph unicode="&#x2000;" horiz-adv-x="884" />
<glyph unicode="&#x2001;" horiz-adv-x="1769" />
<glyph unicode="&#x2002;" horiz-adv-x="884" />
<glyph unicode="&#x2003;" horiz-adv-x="1769" />
<glyph unicode="&#x2004;" horiz-adv-x="589" />
<glyph unicode="&#x2005;" horiz-adv-x="442" />
<glyph unicode="&#x2006;" horiz-adv-x="294" />
<glyph unicode="&#x2007;" horiz-adv-x="294" />
<glyph unicode="&#x2008;" horiz-adv-x="221" />
<glyph unicode="&#x2009;" horiz-adv-x="353" />
<glyph unicode="&#x200a;" horiz-adv-x="98" />
<glyph unicode="&#x2010;" d="M231 410v168h554v-168h-554z" />
<glyph unicode="&#x2011;" d="M231 410v168h554v-168h-554z" />
<glyph unicode="&#x2012;" d="M231 410v168h554v-168h-554z" />
<glyph unicode="&#x2013;" horiz-adv-x="1252" d="M111 410v168h1036v-168h-1036z" />
<glyph unicode="&#x2014;" horiz-adv-x="1493" d="M111 410v168h1277v-168h-1277z" />
<glyph unicode="&#x2018;" horiz-adv-x="457" d="M96 899l164 450h75l-46 -450h-193z" />
<glyph unicode="&#x2019;" horiz-adv-x="457" d="M123 899l46 450h192l-163 -450h-75z" />
<glyph unicode="&#x201a;" horiz-adv-x="457" d="M123 -258l46 451h192l-163 -451h-75z" />
<glyph unicode="&#x201c;" horiz-adv-x="756" d="M96 899l164 450h75l-46 -450h-193zM395 899l164 450h75l-46 -450h-193z" />
<glyph unicode="&#x201d;" horiz-adv-x="756" d="M123 899l46 450h192l-163 -450h-75zM422 899l45 450h193l-164 -450h-74z" />
<glyph unicode="&#x201e;" horiz-adv-x="756" d="M123 -258l46 451h192l-163 -451h-75zM422 -258l45 451h193l-164 -451h-74z" />
<glyph unicode="&#x2022;" horiz-adv-x="780" d="M193 366v256q0 29 21.5 51.5t50.5 22.5h253q70 0 70 -74v-256q0 -75 -70 -74h-253q-72 0 -72 74z" />
<glyph unicode="&#x2026;" horiz-adv-x="1354" d="M186 0v193h192v-193h-192zM595 0v193h193v-193h-193zM1005 0v193h192v-193h-192z" />
<glyph unicode="&#x202f;" horiz-adv-x="353" />
<glyph unicode="&#x2039;" horiz-adv-x="910" d="M224 431v116l407 263l24 -25l-296 -296l296 -296l-24 -24z" />
<glyph unicode="&#x203a;" horiz-adv-x="910" d="M255 193l297 296l-297 296l24 25l408 -263v-116l-408 -262z" />
<glyph unicode="&#x205f;" horiz-adv-x="442" />
<glyph unicode="&#x2122;" horiz-adv-x="1108" d="M104 1265v84h361v-84h-137v-277h-85v277h-139zM549 988v361h350q43 0 75.5 -31t32.5 -77v-253h-84v246q0 31 -34 31h-70v-277h-84v277h-101v-277h-85z" />
<glyph unicode="&#xe000;" horiz-adv-x="987" d="M0 0v988h988v-988h-988z" />
</font>
</defs>
</svg>
